<?xml version="1.0" encoding="UTF-8"?>
<svg width="1024" height="1024" viewBox="0 0 1024 1024" xmlns="http://www.w3.org/2000/svg">
  <defs>
    <linearGradient id="opalBg" x1="0%" y1="0%" x2="100%" y2="100%">
      <stop offset="0%" style="stop-color:#4ECDC4"/>
      <stop offset="25%" style="stop-color:#44A3C4"/>
      <stop offset="50%" style="stop-color:#6B5B95"/>
      <stop offset="75%" style="stop-color:#FF6B9D"/>
      <stop offset="100%" style="stop-color:#C4F3A0"/>
    </linearGradient>
    <linearGradient id="screenBg" x1="0%" y1="0%" x2="0%" y2="100%">
      <stop offset="0%" style="stop-color:#1a1a2e"/>
      <stop offset="100%" style="stop-color:#16213e"/>
    </linearGradient>
  </defs>
  <rect x="112" y="112" width="800" height="800" rx="180" ry="180" fill="url(#opalBg)"/>
  <rect x="212" y="262" width="600" height="500" rx="24" ry="24" fill="url(#screenBg)"/>
  <rect x="212" y="262" width="600" height="48" rx="24" ry="24" fill="#2d2d44"/>
  <circle cx="256" cy="286" r="10" fill="#FF5F56"/>
  <circle cx="292" cy="286" r="10" fill="#FFBD2E"/>
  <circle cx="328" cy="286" r="10" fill="#27C93F"/>
  <text x="256" y="380" font-family="Courier, monospace" font-size="48" font-weight="bold" fill="#4ECDC4">➜</text>
  <text x="320" y="380" font-family="Courier, monospace" font-size="48" fill="#e0e0e0">~</text>
  <rect x="380" y="345" width="20" height="48" rx="2" fill="#FF6B9D"/>
  <rect x="256" y="420" width="200" height="8" rx="4" fill="#6B5B95" opacity="0.6"/>
  <rect x="256" y="440" width="320" height="8" rx="4" fill="#44A3C4" opacity="0.4"/>
  <rect x="256" y="460" width="160" height="8" rx="4" fill="#C4F3A0" opacity="0.5"/>
</svg>
